<?xml version="1.0" standalone="no"?>
<!DOCTYPE svg PUBLIC "-//W3C//DTD SVG 20010904//EN"
 "http://www.w3.org/TR/2001/REC-SVG-20010904/DTD/svg10.dtd">
<svg version="1.0" xmlns="http://www.w3.org/2000/svg"
 width="512.000000pt" height="512.000000pt" viewBox="0 0 512.000000 512.000000"
 preserveAspectRatio="xMidYMid meet">
<metadata>
Created by potrace 1.11, written by Peter Selinger 2001-2013
</metadata>
<g transform="translate(0.000000,512.000000) scale(0.100000,-0.100000)"
fill="#000000" stroke="none">
<path d="M964 5102 c-52 -25 -87 -60 -139 -141 -142 -222 -242 -487 -280 -743
-3 -23 -8 -56 -11 -73 -2 -16 -6 -120 -8 -230 -7 -385 60 -724 221 -1114 30
-74 155 -327 183 -371 5 -8 37 -60 72 -115 52 -85 126 -194 155 -230 5 -5 22
-28 38 -50 17 -22 32 -42 35 -45 3 -3 27 -32 54 -65 63 -76 92 -108 208 -225
492 -500 1090 -834 1723 -961 46 -9 71 -14 145 -24 197 -28 582 -28 720 0 14
3 41 8 60 11 62 10 242 64 335 101 158 63 376 187 423 242 37 42 54 92 55 156
0 108 -6 116 -402 511 l-361 362 0 823 0 824 59 27 c112 52 209 162 251 284
97 279 -66 582 -356 658 -64 17 -194 13 -262 -7 -121 -37 -242 -135 -298 -241
-16 -31 -33 -56 -39 -56 -5 -1 -383 -1 -839 -2 l-828 -1 -337 336 c-185 184
-352 343 -371 353 -53 26 -156 29 -206 6z m2586 -1082 c0 -3 -144 -149 -319
-324 l-320 -319 -321 320 c-176 177 -316 323 -310 325 16 5 1270 4 1270 -2z
m258 -906 l2 -637 -321 322 c-177 177 -320 323 -318 326 43 50 625 633 629
630 3 -2 7 -290 8 -641z"/>
<path d="M652 2279 c-38 -85 -78 -215 -96 -314 -14 -81 -15 -338 -2 -400 4
-16 13 -56 20 -88 15 -65 26 -17 -106 -457 -27 -91 -60 -201 -72 -245 -13 -44
-51 -172 -85 -285 -34 -113 -73 -243 -87 -290 -14 -47 -34 -111 -44 -142 l-19
-58 946 0 c896 0 945 1 938 18 -4 9 -8 25 -10 35 -2 9 -13 47 -25 85 -33 108
-108 367 -106 369 0 1 21 4 46 7 45 7 72 11 120 22 14 3 35 7 47 10 87 18 353
133 353 152 0 5 -44 30 -97 55 -181 87 -329 173 -508 295 -60 42 -112 78 -115
81 -3 3 -32 26 -65 51 -33 24 -65 49 -71 55 -6 5 -38 32 -70 60 -61 51 -194
174 -205 188 -3 4 -37 40 -75 80 -38 40 -94 101 -124 137 -30 36 -57 67 -61
70 -13 12 -168 220 -204 275 -22 33 -43 62 -47 63 -5 2 -8 7 -8 12 0 9 -115
199 -129 213 -6 6 -20 -14 -39 -54z"/>
</g>
</svg>
